<svg width="56" height="34" viewBox="0 0 56 34" fill="none" xmlns="http://www.w3.org/2000/svg">
<path d="M19.5477 0.660076C15.2515 1.57127 10.8685 3.91432 7.87423 6.95161C2.71014 12.115 0.627153 17.7123 0.1498 27.6052C-0.110573 33.2893 -0.110573 33.3761 0.800735 33.3761C2.01581 33.3761 4.40257 31.25 6.05161 28.7334L7.39687 26.7374V30.035V33.3761H11.5195C14.9043 33.3761 15.642 33.2459 15.642 32.7252C15.642 32.3781 15.3383 32.0744 14.9477 32.0744C14.21 32.0744 14.2968 31.5537 15.5119 28.6466L16.1628 27.1279L17.4647 30.252L18.8099 33.3761H22.6287C27.0551 33.3761 27.4891 32.9422 24.9721 31.033L23.4533 29.8615V26.2601C23.4533 23.57 23.6268 22.4852 24.1042 22.0947C24.8419 21.4872 25.1457 22.0947 27.8362 29.3408L29.3117 33.3761H33.0871C37.3399 33.3761 38.121 32.8988 36.2984 31.4235C35.1267 30.5123 33.955 27.3015 34.7795 27.3015C36.038 27.3015 38.7719 29.6879 39.5097 31.4235C40.1606 32.9856 40.5511 33.3761 41.3757 33.3761C42.8511 33.3761 43.5454 32.3347 43.5454 30.1652C43.5454 27.3449 41.8964 24.4811 37.8606 20.2723C34.7361 17.0615 34.3022 16.4106 34.6927 15.673C35.5606 14.0242 37.3833 13.1998 40.1606 13.2432C43.1983 13.2865 44.9341 13.7638 49.6208 15.9333C52.9623 17.452 53.0057 17.452 54.4812 16.7577C55.3057 16.3672 56 15.8465 56 15.673C56 15.456 55.0453 13.9808 53.8302 12.4187C51.1831 8.90416 47.3209 5.7367 42.9813 3.43703C41.2021 2.52584 39.4663 1.35432 39.1625 0.877026C38.5549 -0.16433 37.0795 -0.294498 36.0814 0.573299C35.4739 1.09398 34.8663 1.09398 32.1324 0.573299C28.0098 -0.16433 23.1495 -0.120941 19.5477 0.660076ZM32.0022 2.17872C34.3022 2.56923 34.7795 2.82957 34.9965 3.65398C35.3437 5.04246 36.7323 6.25738 37.1229 5.60653C37.2965 5.3028 37.2097 4.65195 36.9059 4.08788C36.6021 3.52381 36.472 2.74279 36.6021 2.39567C36.9927 1.39771 38.2078 1.52788 38.2078 2.56923C38.2078 3.04652 38.5549 3.5672 38.9889 3.69737C39.3795 3.82754 41.2021 4.60856 42.9813 5.47636C45.4549 6.69128 47.1473 7.99297 50.0548 10.8567C52.1378 12.9394 53.8302 14.8486 53.8302 15.1089C53.8302 15.673 52.2246 15.7598 51.8774 15.1957C51.7472 14.9787 50.0548 14.1543 48.0586 13.3733C44.8473 12.115 43.8926 11.9848 38.2078 11.6811C32.3494 11.4208 31.6984 11.334 29.0947 10.0323C24.9287 8.07975 19.7646 2.65601 21.4137 2.00517C22.4118 1.57127 29.2249 1.70144 32.0022 2.17872ZM20.459 5.43297C22.2382 8.99094 26.491 13.6337 29.789 15.5428L32.3494 17.0615L32.3928 21.1835C32.4796 24.9584 32.9135 28.3862 33.6946 31.0764C33.955 31.9876 33.8248 32.0744 32.3928 32.0744C30.5701 32.0744 30.8305 32.5083 27.6192 24.1774C26.4042 21.0533 25.1457 18.4066 24.8853 18.2764C24.5815 18.1896 24.1476 18.5801 23.9306 19.1876C23.5834 20.0988 20.6325 22.355 17.942 23.7869C16.6835 24.4377 16.51 24.3944 16.51 23.5266C16.51 22.1381 14.427 19.2744 12.6911 18.2764C11.693 17.7557 10.2176 17.3218 9.26289 17.3218H7.52706L7.26669 20.2289C6.96292 23.4398 5.1837 27.6486 3.31768 29.5578C2.66675 30.252 2.01581 30.7727 1.88563 30.7727C1.40827 30.7727 2.146 21.4872 2.79693 19.0574C4.31578 13.6337 7.83083 8.42687 11.9534 5.60653C13.776 4.34822 17.5081 2.65601 18.5496 2.61262C18.8099 2.56923 19.6778 3.87093 20.459 5.43297ZM10.9987 19.231C14.8609 20.8364 15.7288 24.2642 13.4723 29.2106C12.2572 31.9442 12.127 32.0744 10.6515 32.0744H9.1327V25.3489C9.1327 21.6608 9.21949 18.6235 9.34968 18.6235C9.47986 18.6235 10.2176 18.8838 10.9987 19.231ZM37.3399 21.9645C40.1172 24.9584 42.287 28.7767 42.0266 30.3388C41.8096 31.6839 41.0719 31.3801 40.5511 29.7747C40.204 28.7767 39.4663 27.9957 37.7304 26.9978C34.0418 24.8716 33.8682 24.6113 33.8682 21.6608C33.8682 20.2289 34.0418 19.0574 34.2588 19.0574C34.4758 19.0574 35.8644 20.3591 37.3399 21.9645ZM22.4986 31.0764C22.9759 31.9442 22.9325 32.0744 22.2816 32.0744C20.1986 32.031 19.6344 31.5537 18.6363 28.9069C18.0722 27.4317 17.6382 26.13 17.5949 26.0432C17.5949 25.913 18.4628 25.3055 19.5477 24.6981L21.5005 23.57L21.7174 26.8242C21.8476 28.6466 22.1948 30.5557 22.4986 31.0764Z" fill="#FB8C00"/>
<path d="M42.3738 7.73264C42.07 8.20993 43.1549 9.16451 43.5454 8.774C43.719 8.64383 43.8492 8.25332 43.8492 7.9062C43.8492 7.25535 42.7209 7.12518 42.3738 7.73264Z" fill="#FB8C00"/>
</svg>
